<?xml version="1.0" encoding="UTF-8"?>
<svg width="752pt" height="752pt" version="1.1" viewBox="0 0 752 752" xmlns="http://www.w3.org/2000/svg">
 <path d="m158.33 242.55c-5.3086 0-9.1953 4.6289-9.1953 9.5195v43.586l0.003907-0.003906c0 3.1641 2.4922 5.7695 5.6523 5.9102 28.746 1.2969 51.285 24.855 51.316 53.629-0.019531 28.781-22.562 52.352-51.316 53.648-3.1602 0.14453-5.6523 2.7461-5.6523 5.9102v51.066c0 4.8906 3.8867 9.5195 9.1953 9.5195h435.34c5.3086 0 9.1953-4.6289 9.1953-9.5195v-213.75c0-4.8906-3.8867-9.5195-9.1953-9.5195h-435.34zm2.6445 11.84h133.26v17.695h11.84v-17.695h284.95v209.11h-430.05v-43.648c32.191-4.293 56.953-31.613 56.969-64.664v-0.007812c-0.039062-33.035-24.793-60.324-56.969-64.621zm338.95 26.277c-1.9531-0.007813-3.7812 0.94922-4.8906 2.5547l-102.66 144.04c-0.95312 1.2773-1.3516 2.8828-1.1055 4.457 0.24609 1.5703 1.1172 2.9805 2.4102 3.9023 1.2969 0.92578 2.9141 1.2891 4.4805 1.0078 1.5664-0.27734 2.957-1.1797 3.8516-2.4961l102.66-144.04c1.3203-1.793 1.5195-4.1758 0.51562-6.168-1-1.9883-3.0352-3.2461-5.2617-3.2578zm-79.617 0.14844c-15.746 0-28.637 12.891-28.637 28.637 0 15.746 12.891 28.645 28.637 28.645s28.637-12.898 28.637-28.645c0-15.746-12.891-28.637-28.637-28.637zm0 11.84c9.3477 0 16.797 7.4492 16.797 16.797 0 9.3477-7.4492 16.805-16.797 16.805s-16.797-7.457-16.797-16.805c0-9.3477 7.4492-16.797 16.797-16.797zm-126.07 3.1094v23.68h11.84v-23.68zm0 47.359v23.68h11.84v-23.68zm183.61 36.812c-15.746 0-28.637 12.891-28.637 28.637s12.891 28.645 28.637 28.645 28.637-12.898 28.637-28.645-12.891-28.637-28.637-28.637zm-183.61 10.543v23.68h11.84v-23.68zm183.61 1.2969c9.3477 0 16.797 7.4492 16.797 16.797s-7.4492 16.805-16.797 16.805-16.797-7.457-16.797-16.805 7.4492-16.797 16.797-16.797zm-183.61 46.062v23.68h11.84v-23.68z"/>
</svg>
